#!OML:ASF H:\BabyWalks\Project 1\Capture day 1\Session 1\baby.ASF
:FULLY-SPECIFIED
:DEGREES
641
root 30.9945 17.1842 -1.36295 318.82 86.6217 317.331
lowerback 24.9287 0.527328 -5.8864
upperback 6.04235 -0.581014 -3.74479
thorax -7.11955 0.013428 -0.59508
lowerneck -3.10935 0.621966 2.71604
upperneck -7.49143 1.21221 4.1637
head -1.82211 0.538534 0.8355
rclavicle 0 -4.77083e-015
rhumerus -46.8916 8.57534 -84.7058
rradius 55.7432
rwrist -0.596748
rhand -23.0827 -20.4571
rfingers 7.12502
rthumb 3.36321 -50.4103
lclavicle 0 -4.77083e-015
lhumerus -29.861 -4.99237 67.8843
lradius 51.5724
lwrist -4.92404
lhand -7.26093 3.8827
lfingers 7.12502
lthumb 18.6199 33.0116
rfemur -22.3829 0.615992 20.341
rtibia 64.8084
rfoot -20.0233 5.91267
rtoes -19.0147
lfemur -20.6693 1.89589 -15.0344
ltibia 43.845
lfoot -25.1547 -9.40123
ltoes -3.02651
642
root 31.1148 17.212 -1.34172 312.952 86.9747 311.406
lowerback 25.1188 0.406472 -5.90457
upperback 6.01939 -0.749728 -3.63373
thorax -7.23419 -0.0639019 -0.413391
lowerneck -3.0712 0.543203 2.64064
upperneck -7.53046 1.11405 4.22009
head -1.84142 0.48896 0.866685
rclavicle 1.35174e-014 -1.11319e-014
rhumerus -46.9299 8.67569 -84.4172
rradius 55.5555
rwrist -0.654959
rhand -22.3777 -20.2023
rfingers 7.12502
rthumb 4.04408 -50.1437
lclavicle 1.35174e-014 -1.11319e-014
lhumerus -28.8665 -5.81033 68.3898
lradius 53.1731
lwrist -4.01335
lhand -7.68818 3.93387
lfingers 7.12502
lthumb 18.2088 33.1016
rfemur -23.4227 0.550088 20.4192
rtibia 63.1105
rfoot -20.1786 5.32385
rtoes -18.3075
lfemur -20.1694 1.45751 -15.0094
ltibia 43.4608
lfoot -25.0835 -9.44577
ltoes -3.19064
643
root 31.2368 17.243 -1.31946 305.479 87.2795 303.855
lowerback 25.2593 0.288675 -5.8952
upperback 6.00365 -0.902227 -3.5138
thorax -7.3158 -0.13465 -0.241038
lowerneck -3.0369 0.461927 2.5658
upperneck -7.58455 1.01294 4.26908
head -1.86472 0.4379 0.895645
rclavicle -3.02153e-014 -6.67916e-014
rhumerus -46.9655 8.77065 -84.1385
rradius 55.356
rwrist -0.836811
rhand -21.6521 -20.108
rfingers 7.12502
rthumb 4.74471 -50.0349
lclavicle -3.02153e-014 -6.67916e-014
lhumerus -27.9011 -6.67906 68.8681
lradius 54.8231
lwrist -3.28249
lhand -7.96195 3.86329
lfingers 7.12502
lthumb 17.9455 33.0554
rfemur -24.3746 0.532856 20.4997
rtibia 61.1419
rfoot -20.2685 4.71455
rtoes -17.5044
lfemur -19.6595 0.992556 -14.9704
ltibia 43.0182
lfoot -24.978 -9.46422
ltoes -3.35121
644
root 31.3603 17.2768 -1.29652 296.39 87.5388 294.662
lowerback 25.3513 0.176431 -5.87888
upperback 5.99296 -1.04115 -3.39168
thorax -7.36715 -0.199754 -0.0734469
lowerneck -3.00172 0.379203 2.49631
upperneck -7.65355 0.910098 4.306
head -1.89277 0.385826 0.920095
rclavicle -1.03368e-014 -2.22639e-014
rhumerus -47.0013 8.85591 -83.868
rradius 55.145
rwrist -1.11775
rhand -20.9293 -20.1616
rfingers 7.12502
rthumb 5.4426 -50.0717
lclavicle -1.03368e-014 -2.22639e-014
lhumerus -26.949 -7.56726 69.3063
lradius 56.5059
lwrist -2.80542
lhand -7.98321 3.73516
lfingers 7.12502
lthumb 17.925 32.9291
rfemur -25.2421 0.558983 20.5484
rtibia 58.9197
rfoot -20.3006 4.10793
rtoes -16.658
lfemur -19.1411 0.501914 -14.9457
ltibia 42.5137
lfoot -24.8446 -9.45083
ltoes -3.51003
645
root 31.4852 17.3126 -1.27281 285.462 87.7439 283.608
lowerback 25.4024 0.0711334 -5.8662
upperback 5.9859 -1.16824 -3.26868
thorax -7.39346 -0.259776 0.0940241
lowerneck -2.96681 0.293965 2.43296
upperneck -7.73435 0.803845 4.33135
head -1.92436 0.331955 0.940055
rclavicle 1.11319e-014 2.70347e-014
rhumerus -47.0389 8.92391 -83.6022
rradius 54.9242
rwrist -1.47325
rhand -20.2363 -20.3411
rfingers 7.12502
rthumb 6.1117 -50.2329
lclavicle 1.11319e-014 2.70347e-014
lhumerus -26.0063 -8.50297 69.7137
lradius 58.1867
lwrist -2.44719
lhand -7.89958 3.54088
lfingers 7.12502
lthumb 18.0055 32.7274
rfemur -26.0203 0.622777 20.5511
rtibia 56.4616
rfoot -20.2753 3.51685
rtoes -15.8007
lfemur -18.6136 -0.0138559 -14.9448
ltibia 41.949
lfoot -24.6895 -9.40553
ltoes -3.66775
